<?xml version="1.0" encoding="UTF-8"?>
<svg xmlns="http://www.w3.org/2000/svg" xmlns:xlink="http://www.w3.org/1999/xlink" viewBox="0 0 48 48" width="48px" height="48px">
<g id="surface57138019">
<path style=" stroke:none;fill-rule:nonzero;fill:rgb(18.039216%,80.000001%,44.313726%);fill-opacity:1;" d="M 23.085938 11.277344 C 21.449219 8.828125 21.097656 5.554688 21.019531 4.210938 C 16.871094 5.105469 12.753906 6.714844 12.988281 7.902344 C 13.019531 8.050781 13.207031 8.230469 13.519531 8.402344 L 13.03125 9.277344 C 12.4375 8.941406 12.101562 8.558594 12.011719 8.097656 C 11.742188 6.757812 13.261719 5.542969 16.652344 4.386719 C 18.96875 3.597656 21.304688 3.128906 21.402344 3.109375 L 22 2.988281 L 22 3.601562 C 22 3.640625 22.027344 7.886719 23.914062 10.722656 Z M 23.085938 11.277344 "/>
<path style=" stroke:none;fill-rule:nonzero;fill:rgb(18.039216%,80.000001%,44.313726%);fill-opacity:1;" d="M 24.75 43 L 24.5 43 C 16.308594 43 7.191406 40.425781 6.113281 36.121094 C 5.457031 33.492188 7.605469 30.585938 12.328125 27.71875 L 12.847656 28.574219 C 8.597656 31.152344 6.550781 33.746094 7.085938 35.878906 C 8.019531 39.617188 16.660156 41.945312 24.238281 42 C 25.140625 40.652344 29.980469 32.738281 27.21875 22.125 L 28.183594 21.875 C 31.332031 33.964844 24.964844 42.710938 24.902344 42.796875 Z M 24.75 43 "/>
<path style=" stroke:none;fill-rule:nonzero;fill:rgb(18.039216%,80.000001%,44.313726%);fill-opacity:1;" d="M 9.929688 39.304688 C 9.390625 39.304688 9.125 39.246094 9.082031 39.234375 C 8.90625 39.191406 8.765625 39.058594 8.71875 38.882812 C 8.671875 38.710938 8.71875 38.523438 8.847656 38.394531 C 8.921875 38.324219 16.046875 31.1875 17.007812 25.417969 L 17.992188 25.582031 C 17.164062 30.546875 12.277344 36.203125 10.335938 38.289062 C 12.277344 38.179688 17.171875 37.269531 26.570312 32.007812 C 19.234375 31.203125 18.074219 25.332031 18.0625 25.269531 L 19.046875 25.089844 C 19.09375 25.335938 20.273438 31.101562 28.289062 31.101562 C 28.292969 31.101562 28.296875 31.101562 28.300781 31.101562 C 28.527344 31.101562 28.722656 31.253906 28.78125 31.46875 C 28.839844 31.6875 28.746094 31.917969 28.550781 32.03125 C 17.316406 38.542969 11.867188 39.304688 9.929688 39.304688 Z M 9.929688 39.304688 "/>
<path style=" stroke:none;fill-rule:nonzero;fill:rgb(18.039216%,80.000001%,44.313726%);fill-opacity:1;" d="M 14.523438 41.699219 C 14.316406 41.699219 14.128906 41.570312 14.054688 41.375 C 13.976562 41.164062 14.050781 40.925781 14.234375 40.792969 C 14.265625 40.769531 16.046875 39.453125 17.9375 36.566406 C 17.210938 36.242188 16.472656 35.867188 15.742188 35.429688 C 14.855469 34.894531 14.183594 34.324219 13.683594 33.738281 C 11.113281 34.414062 8.742188 34.683594 6.65625 34.507812 L 6.742188 33.511719 C 8.617188 33.667969 10.75 33.445312 13.0625 32.871094 C 11.488281 30.183594 12.933594 27.515625 12.953125 27.476562 L 13.828125 27.964844 C 13.761719 28.085938 12.5625 30.335938 14.078125 32.597656 C 16.277344 31.964844 18.625 31.03125 21.054688 29.816406 C 21.613281 27.980469 22.050781 25.894531 22.28125 23.539062 C 22.296875 23.378906 22.390625 23.234375 22.527344 23.15625 C 22.667969 23.074219 22.839844 23.066406 22.988281 23.132812 C 23.019531 23.148438 26.25 24.625 28.589844 25.589844 C 28.761719 25.65625 28.878906 25.816406 28.898438 26 C 28.917969 26.183594 28.835938 26.359375 28.683594 26.464844 C 26.394531 28.023438 24.117188 29.378906 21.902344 30.507812 C 21.203125 32.730469 20.332031 34.582031 19.445312 36.097656 C 23.148438 37.480469 26.359375 37.5 26.402344 37.5 C 26.628906 37.5 26.828125 37.65625 26.886719 37.875 C 26.941406 38.097656 26.84375 38.328125 26.644531 38.4375 C 22.105469 40.960938 14.878906 41.671875 14.570312 41.699219 C 14.554688 41.699219 14.539062 41.699219 14.523438 41.699219 Z M 18.910156 36.96875 C 17.867188 38.582031 16.847656 39.738281 16.082031 40.496094 C 18.082031 40.203125 21.585938 39.558594 24.492188 38.359375 C 23.097656 38.1875 21.085938 37.808594 18.910156 36.96875 Z M 14.765625 33.429688 C 15.160156 33.824219 15.648438 34.207031 16.257812 34.570312 C 16.992188 35.011719 17.738281 35.386719 18.476562 35.707031 C 19.230469 34.441406 19.976562 32.925781 20.617188 31.136719 C 18.597656 32.101562 16.636719 32.867188 14.765625 33.429688 Z M 23.203125 24.328125 C 22.996094 26.097656 22.679688 27.710938 22.289062 29.179688 C 23.949219 28.292969 25.644531 27.28125 27.351562 26.152344 C 25.800781 25.496094 24.097656 24.734375 23.203125 24.328125 Z M 23.203125 24.328125 "/>
<path style=" stroke:none;fill-rule:nonzero;fill:rgb(18.039216%,80.000001%,44.313726%);fill-opacity:1;" d="M 17.925781 10.601562 C 17.808594 10.601562 17.691406 10.558594 17.597656 10.480469 C 15.988281 9.101562 14.09375 6.296875 14.015625 6.179688 C 13.886719 5.988281 13.90625 5.734375 14.058594 5.5625 C 14.214844 5.390625 14.46875 5.351562 14.667969 5.460938 C 14.679688 5.464844 15.605469 5.847656 21.886719 6.890625 C 22.066406 6.921875 22.214844 7.046875 22.273438 7.21875 C 22.335938 7.390625 22.296875 7.585938 22.175781 7.71875 C 20.417969 9.671875 18.195312 10.53125 18.101562 10.566406 C 18.042969 10.589844 17.984375 10.601562 17.925781 10.601562 Z M 15.648438 6.746094 C 16.277344 7.59375 17.1875 8.742188 18.019531 9.515625 C 18.53125 9.28125 19.675781 8.695312 20.761719 7.71875 C 18.179688 7.277344 16.605469 6.960938 15.648438 6.746094 Z M 15.648438 6.746094 "/>
<path style=" stroke:none;fill-rule:nonzero;fill:rgb(18.039216%,80.000001%,44.313726%);fill-opacity:1;" d="M 21.84375 24.398438 C 21.773438 24.398438 21.707031 24.386719 21.640625 24.359375 C 21.441406 24.269531 21.324219 24.0625 21.347656 23.847656 C 21.636719 21.097656 17.421875 19.996094 17.378906 19.984375 C 17.203125 19.941406 17.066406 19.808594 17.019531 19.632812 C 16.972656 19.460938 17.019531 19.273438 17.148438 19.148438 C 17.355469 18.941406 22.285156 14.050781 28.472656 11.363281 C 28.648438 11.289062 28.84375 11.316406 28.988281 11.433594 C 29.132812 11.550781 29.199219 11.742188 29.164062 11.921875 C 27.976562 17.667969 22.453125 23.96875 22.21875 24.230469 C 22.121094 24.339844 21.980469 24.398438 21.84375 24.398438 Z M 18.453125 19.285156 C 19.640625 19.730469 21.714844 20.761719 22.238281 22.640625 C 23.6875 20.832031 26.78125 16.667969 27.933594 12.707031 C 23.546875 14.816406 19.855469 18 18.453125 19.285156 Z M 18.453125 19.285156 "/>
<path style=" stroke:none;fill-rule:nonzero;fill:rgb(18.039216%,80.000001%,44.313726%);fill-opacity:1;" d="M 13.078125 28.359375 L 12.605469 27.480469 C 14.488281 26.464844 16.644531 24.597656 18.410156 22.425781 C 16.90625 23.457031 16.046875 24.160156 16.019531 24.183594 L 15.378906 23.414062 C 15.417969 23.382812 17.144531 21.96875 20.011719 20.195312 C 20.796875 18.929688 21.402344 17.625 21.714844 16.378906 C 21.765625 16.164062 21.8125 15.960938 21.851562 15.761719 C 19.925781 15.074219 18.148438 14.667969 16.929688 14.492188 C 16.742188 14.46875 16.589844 14.339844 16.527344 14.164062 C 16.464844 13.992188 16.507812 13.796875 16.632812 13.660156 C 16.71875 13.566406 18.746094 11.390625 21.285156 10.195312 C 21.484375 10.101562 21.71875 10.148438 21.867188 10.308594 C 21.933594 10.382812 23.308594 11.925781 22.957031 15.113281 C 24.113281 15.566406 25.304688 16.113281 26.449219 16.761719 C 29.207031 15.523438 32.339844 14.40625 35.679688 13.734375 C 35.851562 13.699219 36.039062 13.761719 36.160156 13.902344 C 36.277344 14.039062 36.308594 14.234375 36.242188 14.402344 C 34.941406 17.734375 31.457031 21.296875 31.308594 21.445312 C 31.207031 21.546875 31.070312 21.597656 30.925781 21.59375 C 30.78125 21.585938 30.648438 21.515625 30.558594 21.40625 C 29.441406 19.996094 27.976562 18.832031 26.398438 17.882812 C 24.222656 18.886719 22.296875 19.960938 20.714844 20.929688 C 18.691406 24.085938 15.644531 26.980469 13.078125 28.359375 Z M 27.492188 17.394531 C 28.78125 18.226562 29.984375 19.207031 30.976562 20.34375 C 31.804688 19.445312 33.789062 17.175781 34.917969 14.921875 C 32.269531 15.53125 29.761719 16.414062 27.492188 17.394531 Z M 22.800781 16.121094 C 22.765625 16.285156 22.726562 16.453125 22.6875 16.621094 C 22.476562 17.460938 22.140625 18.324219 21.714844 19.183594 C 22.808594 18.558594 24.023438 17.910156 25.332031 17.285156 C 24.492188 16.839844 23.640625 16.453125 22.800781 16.121094 Z M 18.046875 13.671875 C 19.160156 13.890625 20.527344 14.246094 21.988281 14.757812 C 22.140625 12.914062 21.644531 11.785156 21.34375 11.285156 C 19.964844 12.003906 18.761719 13.015625 18.046875 13.671875 Z M 18.046875 13.671875 "/>
<path style=" stroke:none;fill-rule:nonzero;fill:rgb(18.039216%,80.000001%,44.313726%);fill-opacity:1;" d="M 18.050781 18.5 C 18.050781 22.878906 14.398438 26.359375 11.769531 28.898438 C 11.328125 29.328125 9.839844 29.398438 9.839844 29.398438 C 10.210938 29.019531 10.628906 28.621094 11.078125 28.191406 C 13.578125 25.769531 17.050781 22.460938 17.050781 18.5 C 17.050781 13.808594 15.160156 11.960938 13.671875 10.480469 C 13.011719 9.808594 12.449219 9.171875 12.109375 8.390625 L 12.421875 8.261719 C 12.761719 8.410156 13.148438 8.578125 13.449219 8.710938 C 13.691406 9.058594 14.011719 9.398438 14.378906 9.769531 C 15.910156 11.300781 18.050781 13.398438 18.050781 18.5 Z M 18.050781 18.5 "/>
<path style=" stroke:none;fill-rule:nonzero;fill:rgb(18.039216%,80.000001%,44.313726%);fill-opacity:1;" d="M 42.933594 19.792969 C 42.933594 19.792969 42.328125 19.878906 42.160156 19.898438 C 33.398438 20.871094 24.359375 23.390625 19.191406 25.460938 C 17.320312 26.210938 15.378906 27.121094 13.609375 28.140625 C 13.601562 28.148438 13.589844 28.148438 13.570312 28.160156 C 12.53125 28.761719 10 30 7.949219 31.089844 C 10.949219 27.898438 16.570312 25.441406 18.808594 24.539062 C 23.878906 22.511719 32.589844 20.058594 41.160156 19.011719 C 40.148438 17.828125 37.679688 15.328125 32.820312 13.46875 C 29.980469 12.371094 25.660156 11.75 21.851562 11.199219 C 15.789062 10.328125 12.339844 9.75 12.011719 8.101562 C 11.941406 7.769531 11.988281 7.441406 12.140625 7.121094 C 12.46875 7.660156 12.941406 8.039062 13.25 8.261719 C 13.398438 8.359375 13.511719 8.421875 13.550781 8.441406 L 13.558594 8.449219 C 14.980469 9.199219 18.808594 9.75 22 10.210938 C 25.859375 10.769531 30.230469 11.398438 33.179688 12.53125 C 40.050781 15.179688 42.421875 18.96875 42.519531 19.128906 C 42.609375 19.28125 42.933594 19.792969 42.933594 19.792969 Z M 42.933594 19.792969 "/>
</g>
</svg>
